{
  "accessors": [
    {
      "bufferView": 2,
      "componentType": 5126,
      "count": 14442,
      "max": [
        0.634115993976593,
        0.2571060061454773,
        1.8396040201187134
      ],
      "min": [
        -0.634115993976593,
        -0.23457199335098267,
        0.0005600000149570405
      ],
      "type": "VEC3"
    },
    {
      "bufferView": 2,
      "byteOffset": 173304,
      "componentType": 5126,
      "count": 14442,
      "max": [
        0.9999695420265198,
        1.0,
        0.9999803304672241
      ],
      "min": [
        -0.9999695420265198,
        -0.9999945759773254,
        -0.9999991059303284
      ],
      "type": "VEC3"
    },
    {
      "bufferView": 1,
      "componentType": 5126,
      "count": 14442,
      "max": [
        0.9965819716453552,
        0.9909740090370178
      ],
      "min": [
        0.004397999960929155,
        0.005371000152081251
      ],
      "type": "VEC2"
    },
    {
      "bufferView": 0,
      "componentType": 5125,
      "count": 47628,
      "type": "SCALAR"
    }
  ],
  "asset": {
    "extras": {
      "author": "#3D $Resource$ (https://sketchfab.com/lopuh22721)",
      "license": "CC-BY-4.0 (http://creativecommons.org/licenses/by/4.0/)",
      "source": "https://sketchfab.com/3d-models/future-ai-soldier-f97c9b3c9dcb45cdbe7258d3ba73f0c5",
      "title": "Future A.I Soldier"
    },
    "generator": "Sketchfab-12.71.0",
    "version": "2.0"
  },
  "bufferViews": [
    {
      "buffer": 0,
      "byteLength": 190512,
      "name": "floatBufferViews",
      "target": 34963
    },
    {
      "buffer": 0,
      "byteLength": 115536,
      "byteOffset": 190512,
      "byteStride": 8,
      "name": "floatBufferViews",
      "target": 34962
    },
    {
      "buffer": 0,
      "byteLength": 346608,
      "byteOffset": 306048,
      "byteStride": 12,
      "name": "floatBufferViews",
      "target": 34962
    }
  ],
  "buffers": [
    {
      "byteLength": 652656,
      "uri": "scene.bin"
    }
  ],
  "images": [
    {
      "uri": "textures/ME3_360_MUL_HUM_SOL_M_baseColor.png"
    }
  ],
  "materials": [
    {
      "doubleSided": true,
      "name": "ME3_360_MUL_HUM_SOL_M",
      "pbrMetallicRoughness": {
        "baseColorTexture": {
          "index": 0
        },
        "metallicFactor": 0.0,
        "roughnessFactor": 0.29907003751466843
      }
    }
  ],
  "meshes": [
    {
      "name": "Object_0",
      "primitives": [
        {
          "attributes": {
            "NORMAL": 1,
            "POSITION": 0,
            "TEXCOORD_0": 2
          },
          "indices": 3,
          "material": 0,
          "mode": 4
        }
      ]
    }
  ],
  "nodes": [
    {
      "children": [
        1
      ],
      "matrix": [
        1.0,
        0.0,
        0.0,
        0.0,
        0.0,
        2.220446049250313e-16,
        -1.0,
        0.0,
        0.0,
        1.0,
        2.220446049250313e-16,
        0.0,
        0.0,
        0.0,
        0.0,
        1.0
      ],
      "name": "Sketchfab_model"
    },
    {
      "children": [
        2
      ],
      "name": "ME3_360_MULTIPLAYER_Human_Soldier_Male.obj.cleaner.materialmerger.gles"
    },
    {
      "mesh": 0,
      "name": "Object_2"
    }
  ],
  "samplers": [
    {
      "magFilter": 9729,
      "minFilter": 9987,
      "wrapS": 10497,
      "wrapT": 10497
    }
  ],
  "scene": 0,
  "scenes": [
    {
      "name": "Sketchfab_Scene",
      "nodes": [
        0
      ]
    }
  ],
  "textures": [
    {
      "sampler": 0,
      "source": 0
    }
  ]
}
